<svg width="30" height="40" viewBox="0 0 30 40" fill="none" xmlns="http://www.w3.org/2000/svg">
<path d="M6.40625 14.2188H23.5938C24.2409 14.2188 24.7656 13.6941 24.7656 13.0469V7.42188C24.7656 6.77469 24.2409 6.25 23.5938 6.25H6.40625C5.75906 6.25 5.23438 6.77469 5.23438 7.42188V13.0469C5.23438 13.6941 5.75906 14.2188 6.40625 14.2188ZM7.57812 8.59375H22.4219V11.875H7.57812V8.59375Z" fill="#1F7973"/>
<path d="M28.2812 0H1.71875C1.07156 0 0.546875 0.524687 0.546875 1.17188V38.8281C0.546875 39.4753 1.07156 40 1.71875 40H28.2812C28.9284 40 29.4531 39.4753 29.4531 38.8281V1.17188C29.4531 0.524687 28.9284 0 28.2812 0ZM27.1094 37.6562H2.89062V2.34375H27.1094V37.6562Z" fill="#1F7973"/>
<path d="M24.0261 32.0645C23.8307 31.5982 23.358 31.3092 22.854 31.3491L22.1437 31.4046L21.723 29.2076C21.6347 28.746 21.279 28.3818 20.8195 28.2825C20.3601 28.1837 19.8858 28.3682 19.6147 28.7522L15.738 34.2443C15.3648 34.7731 15.4908 35.5043 16.0196 35.8775C16.5476 36.2502 17.279 36.1255 17.6528 35.596L19.9397 32.3561L20.039 32.8751C20.1513 33.4613 20.6852 33.8693 21.2814 33.823L22.1921 33.7518L22.512 34.5153C22.7621 35.1124 23.4488 35.3934 24.0457 35.1433C24.6426 34.8932 24.9238 34.2065 24.6736 33.6096L24.0261 32.0645Z" fill="#1F7973"/>
<path d="M6.40625 22.8125H17.3438C17.9909 22.8125 18.5156 22.2878 18.5156 21.6406C18.5156 20.9934 17.9909 20.4688 17.3438 20.4688H6.40625C5.75906 20.4688 5.23438 20.9934 5.23438 21.6406C5.23438 22.2878 5.75906 22.8125 6.40625 22.8125Z" fill="#1F7973"/>
<path d="M6.40625 26.7188H23.5938C24.2409 26.7188 24.7656 26.1941 24.7656 25.5469C24.7656 24.8997 24.2409 24.375 23.5938 24.375H6.40625C5.75906 24.375 5.23438 24.8997 5.23438 25.5469C5.23438 26.1941 5.75906 26.7188 6.40625 26.7188Z" fill="#1F7973"/>
<path d="M6.40625 18.9062H23.5938C24.2409 18.9062 24.7656 18.3816 24.7656 17.7344C24.7656 17.0872 24.2409 16.5625 23.5938 16.5625H6.40625C5.75906 16.5625 5.23438 17.0872 5.23438 17.7344C5.23438 18.3816 5.75906 18.9062 6.40625 18.9062Z" fill="#1F7973"/>
</svg>
