<svg width="40" height="40" viewBox="0 0 40 40" fill="none" xmlns="http://www.w3.org/2000/svg">
<g clip-path="url(#clip0)">
<path d="M38.5963 25.9046C37.7046 25.1659 36.5403 24.8657 35.4028 25.0812L25.93 26.8749L20.1189 22.309C18.2504 20.8409 15.8405 20.2556 13.5067 20.7028L8.67179 21.6295V20.0005C8.67179 19.3533 8.14711 18.8286 7.49993 18.8286H1.17186C0.524682 18.8286 0 19.3533 0 20.0005V38.8284C0 39.4756 0.524682 40.0003 1.17186 40.0003H7.49993C8.14711 40.0003 8.67179 39.4756 8.67179 38.8284V37.6467L19.6093 39.5731C20.7751 39.7786 21.971 39.6308 23.0645 39.1302L37.7371 32.4135C40.3213 31.2305 40.8029 27.7325 38.5963 25.9046ZM2.34373 37.6565V21.1723H6.32806V37.6565H2.34373ZM36.7615 30.2823L22.089 36.9991C21.4378 37.2971 20.721 37.3891 20.0158 37.2649L8.67179 35.2668V24.0158L13.9479 23.0046C15.6147 22.6849 17.3363 23.1032 18.6709 24.1519L24.0205 28.3552L23.8743 28.5599C22.8625 29.9763 20.9982 30.4393 19.4413 29.6609L18.0239 28.9522C17.4448 28.6628 16.7411 28.8974 16.4516 29.4763C16.1622 30.0552 16.3969 30.7591 16.9757 31.0485L18.3931 31.7572C20.949 33.0351 24.0917 32.2877 25.7814 29.9221L26.3049 29.1892L35.8388 27.384C36.7832 27.2053 37.6559 27.9296 37.6559 28.8893C37.6559 29.4869 37.3049 30.0337 36.7615 30.2823Z" fill="#1F7973"/>
<path d="M9.37499 4.45349C8.72781 4.45349 8.20312 4.97817 8.20312 5.62535V11.7972C8.20312 12.4444 8.72781 12.969 9.37499 12.969C10.0222 12.969 10.5468 12.4444 10.5468 11.7972V5.62535C10.5468 4.97817 10.0222 4.45349 9.37499 4.45349Z" fill="#1F7973"/>
<path d="M9.37539 2.34453C10.0228 2.34453 10.5477 1.81969 10.5477 1.17227C10.5477 0.524841 10.0228 0 9.37539 0C8.72797 0 8.20312 0.524841 8.20312 1.17227C8.20312 1.81969 8.72797 2.34453 9.37539 2.34453Z" fill="#1F7973"/>
<path d="M38.125 14.5312C37.4778 14.5312 36.9531 15.0559 36.9531 15.7031V21.8749C36.9531 22.5221 37.4778 23.0468 38.125 23.0468C38.7722 23.0468 39.2969 22.5221 39.2969 21.8749V15.7031C39.2969 15.0559 38.7723 14.5312 38.125 14.5312Z" fill="#1F7973"/>
<path d="M38.1254 12.4228C38.7728 12.4228 39.2977 11.8979 39.2977 11.2505C39.2977 10.6031 38.7728 10.0782 38.1254 10.0782C37.478 10.0782 36.9531 10.6031 36.9531 11.2505C36.9531 11.8979 37.478 12.4228 38.1254 12.4228Z" fill="#1F7973"/>
<path d="M23.7499 21.094C29.5654 21.094 34.2967 16.3628 34.2967 10.5473C34.2967 4.73177 29.5654 0.000488281 23.7499 0.000488281C17.9344 0.000488281 13.2031 4.73177 13.2031 10.5473C13.2031 16.3628 17.9344 21.094 23.7499 21.094ZM23.7499 2.34422C28.2731 2.34422 31.9529 6.0241 31.9529 10.5473C31.9529 15.0704 28.2731 18.7503 23.7499 18.7503C19.2267 18.7503 15.5469 15.0704 15.5469 10.5473C15.5469 6.0241 19.2267 2.34422 23.7499 2.34422Z" fill="#1F7973"/>
<path d="M20.9815 15.0561C21.5858 15.4462 22.0695 15.6416 22.5978 15.7342V15.8617C22.5978 16.4927 23.0827 17.0356 23.713 17.0653C24.386 17.097 24.9415 16.5608 24.9415 15.8948V15.6017C26.0939 15.185 26.9724 14.1769 27.1856 12.9089C27.45 11.3366 26.599 9.9168 25.0681 9.37572C24.3212 9.11166 23.2301 8.73635 23.056 8.44822C23.0368 8.41658 22.9727 8.28901 23.0108 8.08667C23.0657 7.7944 23.3133 7.6094 23.5954 7.55519C24.1281 7.45284 24.6961 7.65589 25.0156 7.85198C25.636 8.2326 26.3277 8.04143 26.6603 7.55261C27.0392 6.99558 26.8726 6.24161 26.3049 5.89333C25.8883 5.63794 25.4759 5.44286 24.9415 5.3124C24.9415 4.61881 24.4242 4.11584 23.8263 4.08764C23.1533 4.05592 22.5978 4.59217 22.5978 5.25818V5.37958C20.486 6.14668 20.0001 9.03002 21.6096 10.2923C22.3164 10.8468 23.3141 11.2415 24.287 11.5854C24.8678 11.7907 24.9269 12.2071 24.8743 12.5203C24.8157 12.8691 24.5152 13.4608 23.7615 13.4658C22.9796 13.4711 22.7953 13.4421 22.2242 13.0684C21.67 12.706 20.9226 12.8732 20.5781 13.4456C20.2474 13.9949 20.4429 14.7083 20.9815 15.0561Z" fill="#1F7973"/>
</g>
<defs>
<clipPath id="clip0">
<rect width="40" height="40" fill="white"/>
</clipPath>
</defs>
</svg>
